#!OML:ASF H:\MichaelJackson\Top Level 1\Subject 1\Session 1\male.ASF
:FULLY-SPECIFIED
:DEGREES
195
root 4.98323 16.5901 -18.1506 12.4491 21.3011 3.04866
lowerback -7.40079 -2.17697 1.97997
upperback -3.1702 -2.93794 -5.05681
thorax 0.488669 -1.51972 -6.60496
lowerneck -5.19288 -6.61138 4.57024
upperneck 0.365989 -9.17385 4.46441
head 0.974315 -4.4971 0.413237
rclavicle -1.14301e-014 4.45278e-014
rhumerus 1.70315 -26.0279 3.71275
rradius 39.2332
rwrist -18.6722
rhand -19.3794 -31.1317
rfingers 7.12502
rthumb 6.93889 -60.998
lclavicle -1.14301e-014 4.45278e-014
lhumerus -61.9536 -39.5528 118.301
lradius 55.9208
lwrist 15.9735
lhand 21.5879 22.8089
lfingers 7.12502
lthumb 46.0113 45.8988
rfemur -25.4943 -9.66906 6.93738
rtibia 40.3684
rfoot -19.398 -0.03795
rtoes -6.97196
lfemur -11.9427 -4.41482 -9.19959
ltibia 21.4024
lfoot -0.573568 -26.8896
ltoes 66.7921
196
root 4.97642 16.5854 -18.1624 12.2758 21.2913 2.91205
lowerback -7.24968 -1.89689 2.18485
upperback -3.25849 -2.57828 -5.21598
thorax 0.34137 -1.34725 -6.85926
lowerneck -4.91626 -6.87263 4.76895
upperneck 0.552836 -9.52405 4.39507
head 0.972932 -4.67015 0.361144
rclavicle -3.37934e-014 3.02153e-014
rhumerus 4.49212 -35.2348 1.98498
rradius 34.5816
rwrist -14.4468
rhand -27.6293 -39.5766
rfingers 7.12502
rthumb -1.02785 -69.5539
lclavicle -3.37934e-014 3.02153e-014
lhumerus -62.4526 -40.1343 118.754
lradius 55.8916
lwrist 16.3329
lhand 21.7301 22.9866
lfingers 7.12502
lthumb 46.1433 46.0212
rfemur -25.1784 -8.96053 7.03614
rtibia 40.0646
rfoot -19.516 -1.01741
rtoes -7.86119
lfemur -11.8427 -4.87912 -9.06456
ltibia 21.48
lfoot -1.62607 -26.8765
ltoes 66.662
197
root 4.96865 16.5833 -18.1725 12.1326 21.3472 2.82214
lowerback -7.09216 -1.60044 2.36737
upperback -3.35467 -2.19415 -5.40327
thorax 0.189632 -1.16292 -7.13159
lowerneck -4.6732 -7.16215 4.99654
upperneck 0.746054 -9.91452 4.31414
head 0.976232 -4.86241 0.29992
rclavicle 1.15047e-014 -3.18055e-014
rhumerus 7.39278 -44.2707 -0.273986
rradius 31.4837
rwrist -10.8007
rhand -34.9366 -48.9185
rfingers 7.12502
rthumb -8.08363 -78.7439
lclavicle 1.15047e-014 -3.18055e-014
lhumerus -63.0046 -40.7574 119.244
lradius 55.9201
lwrist 16.6935
lhand 21.9745 23.326
lfingers 7.12502
lthumb 46.3699 46.265
rfemur -24.8908 -8.24997 7.07893
rtibia 39.819
rfoot -19.5638 -1.89876
rtoes -8.46772
lfemur -11.7807 -5.40453 -8.96872
ltibia 21.5482
lfoot -2.58287 -26.763
ltoes 66.5621
198
root 4.95994 16.5828 -18.1809 12.0307 21.485 2.76955
lowerback -6.95435 -1.30829 2.50674
upperback -3.44778 -1.81173 -5.60719
thorax 0.0572628 -0.978604 -7.40065
lowerneck -4.4659 -7.46481 5.27415
upperneck 0.912517 -10.3251 4.25178
head 0.974467 -5.06429 0.236583
rclavicle -8.23714e-015 -1.27222e-014
rhumerus 9.72254 -51.2968 -2.24746
rradius 29.9668
rwrist -9.30227
rhand -40.8323 -57.7116
rfingers 7.12502
rthumb -13.77 -87.2359
lclavicle -8.23714e-015 -1.27222e-014
lhumerus -63.5928 -41.3793 119.749
lradius 56.0034
lwrist 16.951
lhand 22.2129 23.6361
lfingers 7.12502
lthumb 46.5908 46.4805
rfemur -24.6539 -7.61212 7.09534
rtibia 39.6444
rfoot -19.5616 -2.67015
rtoes -8.70409
lfemur -11.7654 -5.96218 -8.8899
ltibia 21.5883
lfoot -3.36026 -26.5809
ltoes 66.5007
199
root 4.95043 16.5851 -18.1866 11.961 21.7097 2.72935
lowerback -6.85636 -1.05417 2.59052
upperback -3.52514 -1.4757 -5.8017
thorax -0.0373587 -0.815518 -7.63402
lowerneck -4.30189 -7.74786 5.59468
upperneck 1.04095 -10.7125 4.23805
head 0.967531 -5.25394 0.181897
rclavicle 1.78906e-014 -6.20208e-014
rhumerus 10.2611 -55.0206 -2.6399
rradius 29.8255
rwrist -10.7879
rhand -45.0328 -64.3839
rfingers 7.12502
rthumb -17.8152 -266.412
lclavicle 1.78906e-014 -6.20208e-014
lhumerus -64.1641 -41.9158 120.212
lradius 56.1445
lwrist 17.0685
lhand 22.3671 23.8601
lfingers 7.12502
lthumb 46.7335 46.6428
rfemur -24.452 -7.09136 7.12896
rtibia 39.5198
rfoot -19.5304 -3.36173
rtoes -8.62301
lfemur -11.8049 -6.47889 -8.8013
ltibia 21.6005
lfoot -3.90369 -26.3566
ltoes 66.4665
200
root 4.94081 16.5876 -18.1898 11.9177 22.0142 2.67001
lowerback -6.81862 -0.879309 2.62869
upperback -3.58301 -1.24255 -5.952
thorax -0.0887096 -0.701716 -7.80267
lowerneck -4.18282 -7.96693 5.91853
upperneck 1.13921 -11.0171 4.2907
head 0.962033 -5.4012 0.147399
rclavicle -2.47238e-015 2.8625e-014
rhumerus 8.51387 -55.2897 -0.977778
rradius 30.7261
rwrist -14.7438
rhand -47.6371 -67.7582
rfingers 7.12502
rthumb -20.3197 -263.285
lclavicle -2.47238e-015 2.8625e-014
lhumerus -64.6417 -42.2601 120.557
lradius 56.3261
lwrist 17.0419
lhand 22.3788 23.9931
lfingers 7.12502
lthumb 46.7443 46.7712
rfemur -24.2843 -6.703 7.21306
rtibia 39.423
rfoot -19.4904 -3.97596
rtoes -8.35112
lfemur -11.8779 -7.01345 -8.66126
ltibia 21.5815
lfoot -4.31241 -26.1851
ltoes 66.4492
201
root 4.93178 16.591 -18.1907 11.8962 22.3793 2.57543
lowerback -6.85853 -0.818179 2.62387
upperback -3.62181 -1.15919 -6.02704
thorax -0.0960927 -0.660698 -7.87659
lowerneck -4.11441 -8.08137 6.20382
upperneck 1.24456 -11.1856 4.39144
head 0.972895 -5.47856 0.132683
rclavicle 1.29583e-014 3.33958e-014
rhumerus 5.56318 -52.9121 1.62027
rradius 32.3138
rwrist -19.6642
rhand -48.7185 -67.159
rfingers 7.12502
rthumb -21.3586 -263.998
lclavicle 1.29583e-014 3.33958e-014
lhumerus -64.953 -42.3302 120.714
lradius 56.5265
lwrist 16.9099
lhand 22.2126 23.9986
lfingers 7.12502
lthumb 46.5905 46.8432
rfemur -24.1341 -6.42621 7.35656
rtibia 39.3205
rfoot -19.4562 -4.50884
rtoes -7.95248
lfemur -11.9859 -7.53517 -8.46386
ltibia 21.5366
lfoot -4.6277 -26.0425
ltoes 66.4376
202
root 4.92403 16.5954 -18.1897 11.8811 22.7673 2.42734
lowerback -6.98071 -0.880889 2.59234
upperback -3.64487 -1.24067 -6.00232
thorax -0.0634996 -0.700389 -7.83948
lowerneck -4.08191 -8.06841 6.40994
upperneck 1.38805 -11.1865 4.50112
head 1.00811 -5.47013 0.131851
rclavicle -5.68959e-014 -8.90555e-014
rhumerus 2.79809 -49.0996 3.79948
rradius 34.284
rwrist -23.9135
rhand -48.4308 -63.092
rfingers 7.12502
rthumb -21.0823 -268.034
lclavicle -5.68959e-014 -8.90555e-014
lhumerus -65.0578 -42.0988 120.663
lradius 56.7205
lwrist 16.7357
lhand 21.9086 23.9809
lfingers 7.12502
lthumb 46.3088 46.9457
rfemur -23.9909 -6.22002 7.56357
rtibia 39.1949
rfoot -19.4457 -4.98669
rtoes -7.6043
lfemur -12.1063 -8.05386 -8.20398
ltibia 21.4641
lfoot -4.9674 -25.9154
ltoes 66.4097
203
root 4.91829 16.5999 -18.1878 11.8591 23.1269 2.22899
lowerback -7.17513 -1.05001 2.54541
upperback -3.6571 -1.46462 -5.87273
thorax 0.00254232 -0.80993 -7.69165
lowerneck -4.08296 -7.92923 6.51177
upperneck 1.60818 -11.0215 4.5656
head 1.07785 -5.37644 0.131446
rclavicle 2.64741e-014 -1.08139e-013
rhumerus 0.86268 -44.9934 5.00902
rradius 36.4062
rwrist -26.3783
rhand -47.1218 -57.5859
rfingers 7.12502
rthumb -19.8244 -446.595
lclavicle 2.64741e-014 -1.08139e-013
lhumerus -64.9542 -41.6123 120.446
lradius 56.8779
lwrist 16.6111
lhand 21.5154 23.9668
lfingers 7.12502
lthumb 45.9441 47.0846
rfemur -23.8491 -6.05075 7.81293
rtibia 39.0301
rfoot -19.4581 -5.37685
rtoes -7.30456
lfemur -12.2163 -8.59788 -7.90198
ltibia 21.3895
lfoot -5.42957 -25.7787
ltoes 66.3689
204
root 4.91485 16.6036 -18.1862 11.8227 23.4091 1.9985
lowerback -7.41171 -1.28613 2.49306
upperback -3.66952 -1.77913 -5.65431
thorax 0.0831462 -0.964069 -7.4537
lowerneck -4.11311 -7.69339 6.50911
upperneck 1.92651 -10.7292 4.53032
head 1.18492 -5.2173 0.114757
rclavicle 1.06598e-014 3.81667e-014
rhumerus -0.200451 -41.3677 5.2983
rradius 38.5176
rwrist -26.754
rhand -45.457 -52.9201
rfingers 7.12502
rthumb -18.2234 -442.086
lclavicle 1.06598e-014 3.81667e-014
lhumerus -64.7078 -40.98 120.165
lradius 56.9676
lwrist 16.5789
lhand 21.0696 23.9831
lfingers 7.12502
lthumb 45.5302 47.2707
rfemur -23.7126 -5.89739 8.07393
rtibia 38.828
rfoot -19.4878 -5.65953
rtoes -7.04074
lfemur -12.2978 -9.07209 -7.59802
ltibia 21.3301
lfoot -5.99364 -25.6535
ltoes 66.3136
205
root 4.91388 16.6073 -18.1859 11.7673 23.5662 1.75046
lowerback -7.65843 -1.53212 2.45389
upperback -3.69234 -2.10901 -5.3782
thorax 0.161138 -1.12594 -7.16515
lowerneck -4.16611 -7.40656 6.42578
upperneck 2.3411 -10.3689 4.36997
head 1.32494 -5.02343 0.0706887
rclavicle 3.20354e-014 3.65764e-014
rhumerus -0.56856 -38.595 4.89699
rradius 40.526
rwrist -25.4754
rhand -44.1424 -50.1548
rfingers 7.12502
rthumb -16.9582 -439.434
lclavicle 3.20354e-014 3.65764e-014
lhumerus -64.4048 -40.3495 119.94
lradius 56.979
lwrist 16.6739
lhand 20.65 24.0947
lfingers 7.12502
lthumb 45.1401 47.5388
rfemur -23.5905 -5.74227 8.32404
rtibia 38.5991
rfoot -19.5271 -5.80616
rtoes -6.82092
lfemur -12.3407 -9.51376 -7.32129
ltibia 21.2999
lfoot -6.77494 -25.5051
ltoes 66.2166
206
root 4.91516 16.6105 -18.1874 11.6884 23.5571 1.50871
lowerback -7.88015 -1.73023 2.42506
upperback -3.7287 -2.37655 -5.08256
thorax 0.223701 -1.25695 -6.8588
lowerneck -4.23756 -7.12342 6.29746
upperneck 2.82087 -10.0107 4.09095
head 1.48595 -4.83177 -0.00412734
rclavicle -6.8941e-014 1.43125e-014
rhumerus -0.480102 -36.6868 4.06402
rradius 42.3856
rwrist -23.4564
rhand -43.4907 -49.0912
rfingers 7.12502
rthumb -16.3308 -438.424
lclavicle -6.8941e-014 1.43125e-014
lhumerus -64.1309 -39.866 119.871
lradius 56.9206
lwrist 16.8826
lhand 20.3121 24.2834
lfingers 7.12502
lthumb 44.8257 47.8513
rfemur -23.4911 -5.56992 8.53461
rtibia 38.3673
rfoot -19.5752 -5.80645
rtoes -6.66232
lfemur -12.3195 -9.89485 -7.10599
ltibia 21.2996
lfoot -7.75499 -25.3262
ltoes 66.0764
207
root 4.91827 16.6132 -18.1913 11.5866 23.3731 1.2831
lowerback -8.03944 -1.84729 2.41508
upperback -3.7837 -2.53781 -4.79996
thorax 0.247638 -1.33605 -6.56862
lowerneck -4.31687 -6.88178 6.15113
upperneck 3.31828 -9.70271 3.74343
head 1.65241 -4.66768 -0.098052
rclavicle -4.83295e-014 2.54444e-014
rhumerus -0.144768 -35.4183 3.01099
rradius 44.0497
rwrist -21.6008
rhand -43.5717 -49.3644
rfingers 7.12502
rthumb -16.4089 -438.69
lclavicle -4.83295e-014 2.54444e-014
lhumerus -63.9419 -39.6133 120.001
lradius 56.8272
lwrist 17.1708
lhand 20.1215 24.5765
lfingers 7.12502
lthumb 44.6483 48.2133
rfemur -23.4239 -5.37786 8.69783
rtibia 38.1533
rfoot -19.6266 -5.67756
rtoes -6.59917
lfemur -12.2326 -10.1866 -6.96073
ltibia 21.3265
lfoot -8.84864 -25.0971
ltoes 65.909
